<?xml version="1.0" standalone="no"?>
<!DOCTYPE svg PUBLIC "-//W3C//DTD SVG 20010904//EN"
 "http://www.w3.org/TR/2001/REC-SVG-20010904/DTD/svg10.dtd">
<svg version="1.0" xmlns="http://www.w3.org/2000/svg"
 width="1194.000000pt" height="1194.000000pt" viewBox="0 0 1194.000000 1194.000000"
 preserveAspectRatio="xMidYMid meet">
<metadata>
Created by potrace 1.14, written by Peter Selinger 2001-2017
</metadata>
<g transform="translate(0.000000,1194.000000) scale(0.100000,-0.100000)"
fill="#000000" stroke="none">
<path d="M850 10428 c-24 -9 -90 -73 -90 -88 0 -4 -11 -20 -25 -36 -14 -16
-37 -47 -52 -69 -15 -22 -36 -51 -47 -64 -12 -13 -15 -21 -8 -17 23 13 12 -3
-13 -20 -21 -14 -30 -14 -55 -4 -17 7 -30 16 -30 21 0 5 -3 9 -7 8 -16 -2 -53
14 -53 22 0 9 -8 8 -66 -5 -13 -3 -30 3 -43 15 -12 11 -21 16 -21 12 0 -4 -7
1 -15 11 -8 11 -15 17 -15 13 0 -6 -79 34 -147 75 -36 21 -62 14 -96 -26 -45
-53 -78 -148 -57 -161 6 -4 8 -10 5 -14 -2 -5 13 -16 35 -26 22 -10 40 -22 40
-27 0 -4 3 -7 7 -6 21 5 51 -16 66 -47 9 -20 28 -40 41 -44 19 -8 36 -29 36
-45 0 -2 -10 -1 -23 1 -15 3 -33 -6 -56 -26 -19 -17 -31 -31 -27 -31 4 0 -2
-10 -14 -22 -11 -12 -20 -28 -20 -35 0 -7 -4 -13 -9 -13 -5 0 -8 -8 -6 -17 1
-10 0 -22 -3 -28 -4 -5 -7 -22 -8 -37 -2 -21 6 -32 37 -54 21 -15 39 -31 39
-35 0 -5 3 -8 8 -7 11 3 82 -35 82 -44 0 -4 7 -8 15 -8 8 0 37 -13 65 -30 27
-16 50 -26 50 -22 0 4 7 -2 15 -12 8 -11 15 -16 15 -12 0 4 20 -7 45 -24 25
-17 45 -28 45 -24 0 4 8 0 18 -8 9 -9 28 -19 42 -23 38 -11 80 -29 80 -36 0
-3 16 -11 35 -19 19 -8 35 -18 35 -22 0 -5 5 -6 10 -3 6 3 10 1 10 -5 0 -6 4
-8 10 -5 5 3 10 1 10 -6 0 -7 3 -9 7 -6 3 4 12 -1 20 -11 8 -9 11 -10 7 -2 -5
8 12 0 36 -18 24 -17 50 -32 57 -32 7 0 13 -4 13 -10 0 -5 3 -9 8 -8 12 3 82
-35 82 -44 0 -5 5 -6 10 -3 6 3 10 1 10 -4 0 -6 6 -11 14 -11 18 0 47 -40 39
-53 -3 -5 -13 -7 -23 -4 -9 2 -22 -4 -28 -14 -12 -19 -6 -49 9 -49 6 0 19 -9
31 -20 12 -11 28 -20 35 -20 7 0 13 -4 13 -10 0 -5 6 -10 13 -10 7 0 28 -11
47 -25 18 -13 37 -22 41 -19 5 3 9 1 9 -4 0 -14 27 -23 46 -15 8 3 13 12 10
19 -3 7 0 24 7 36 16 30 42 26 126 -20 36 -20 76 -41 88 -46 13 -6 23 -14 23
-18 0 -5 6 -8 14 -8 7 0 19 -7 26 -15 7 -8 16 -12 21 -9 5 3 9 0 9 -6 0 -6 5
-8 10 -5 11 7 11 -8 1 -45 -4 -14 -4 -34 0 -46 9 -24 -2 -46 -22 -44 -28 4
-39 0 -67 -28 -38 -37 -73 -113 -74 -159 -1 -48 3 -62 25 -85 9 -10 17 -24 17
-32 0 -7 9 -13 20 -12 11 0 20 5 19 10 0 5 4 12 10 16 8 4 5 15 -9 32 -27 35
-25 82 6 145 35 68 42 67 90 -24 10 -18 21 -33 26 -33 4 0 8 -9 8 -20 0 -11 4
-20 8 -20 13 0 13 -65 1 -96 -7 -16 -12 -32 -11 -36 1 -5 -3 -8 -10 -8 -6 0
-8 -3 -5 -7 4 -3 -2 -13 -14 -21 -18 -12 -22 -12 -34 4 -7 10 -11 22 -9 26 8
13 -36 19 -50 6 -12 -11 -11 -20 11 -60 15 -27 32 -49 40 -49 7 -1 19 -2 26
-2 16 0 67 21 67 28 0 4 -6 3 -12 -1 -7 -3 -1 4 13 17 22 20 37 44 41 69 1 3
6 19 13 35 13 34 12 78 -3 115 -8 22 -5 28 20 50 16 14 33 26 39 26 5 1 14 2
20 3 5 0 8 5 5 10 -4 5 -1 11 4 13 6 2 13 19 16 38 3 19 8 37 10 39 2 2 21
-15 42 -38 20 -22 43 -41 50 -41 6 0 12 -4 12 -10 0 -5 7 -10 16 -10 8 0 12
-4 9 -10 -3 -5 1 -10 9 -10 9 0 16 -5 16 -11 0 -5 5 -7 10 -4 5 3 10 2 10 -4
0 -5 12 -16 28 -24 15 -7 51 -28 80 -45 28 -17 52 -29 52 -26 0 3 7 -2 16 -10
8 -9 20 -14 25 -11 5 4 9 3 9 -2 0 -4 26 -21 58 -38 31 -16 59 -33 60 -37 2
-5 8 -8 14 -8 5 0 22 -9 38 -20 15 -11 29 -17 32 -14 3 2 11 -2 18 -11 7 -8
19 -15 26 -15 8 0 14 -5 14 -12 0 -6 3 -9 6 -5 4 3 13 -1 21 -9 8 -8 19 -12
24 -9 5 4 9 2 9 -2 0 -5 48 -35 108 -68 59 -32 110 -64 114 -69 4 -6 10 -7 14
-4 3 4 15 -2 27 -12 11 -11 24 -17 29 -14 4 3 8 2 8 -3 0 -4 10 -13 23 -18 31
-15 111 -59 117 -65 3 -3 19 -12 35 -20 17 -8 36 -21 43 -27 7 -7 24 -16 38
-19 13 -3 24 -9 24 -13 0 -4 27 -20 60 -36 33 -16 60 -33 60 -38 0 -5 6 -7 14
-4 8 3 16 3 18 -1 5 -11 112 -73 122 -72 5 1 12 -3 15 -8 3 -5 31 -23 61 -40
130 -70 177 -97 211 -118 20 -13 40 -20 43 -17 3 4 6 1 6 -5 0 -7 7 -12 15
-12 8 0 15 -4 15 -9 0 -7 28 -19 47 -19 3 0 9 -5 12 -10 3 -5 22 -17 41 -27
19 -9 44 -25 54 -34 16 -13 18 -13 12 -1 -4 8 -1 7 7 -3 9 -10 22 -20 30 -21
8 -1 22 -8 31 -15 9 -7 16 -10 16 -5 0 5 4 4 8 -1 10 -15 72 -58 72 -50 0 4 7
-1 16 -9 8 -9 20 -14 25 -11 5 4 9 2 9 -2 0 -5 27 -22 60 -38 64 -33 69 -43
56 -120 -4 -21 -37 -62 -61 -75 -13 -7 -22 -17 -19 -22 3 -4 0 -8 -7 -8 -8 0
-10 -13 -6 -40 5 -37 -4 -53 -17 -31 -8 12 -56 20 -56 9 0 -5 -4 -7 -10 -3 -5
3 -25 -10 -45 -30 -20 -19 -34 -35 -30 -35 3 0 -1 -7 -9 -16 -9 -8 -14 -19
-11 -24 3 -5 1 -10 -4 -12 -21 -7 -31 -140 -12 -146 6 -2 11 -10 11 -18 0 -8
7 -17 15 -20 8 -4 13 -10 10 -14 -2 -4 4 -15 15 -25 11 -10 20 -24 20 -32 0
-8 4 -11 10 -8 5 3 10 -1 10 -9 0 -9 5 -16 11 -16 5 0 7 -4 4 -10 -3 -5 -1
-10 4 -10 6 0 11 -7 11 -16 0 -8 4 -12 10 -9 5 3 10 2 10 -3 0 -15 57 -82 64
-75 3 3 6 2 6 -4 0 -9 22 -10 51 -4 12 2 83 71 73 71 -5 0 -2 5 6 10 8 5 15
15 15 22 1 7 6 25 13 40 18 43 8 123 -20 161 -41 54 -42 67 -7 74 33 6 99 65
99 87 0 8 9 16 20 19 11 3 18 2 15 -3 -3 -4 7 -11 21 -14 15 -4 24 -10 20 -13
-3 -3 7 -13 23 -22 16 -9 46 -29 66 -46 20 -16 40 -30 43 -30 7 0 81 -52 115
-80 9 -8 22 -15 27 -15 6 0 10 -3 10 -8 0 -4 18 -18 40 -32 22 -14 40 -29 40
-34 0 -5 3 -6 6 -3 4 4 19 -4 34 -16 15 -12 37 -28 48 -36 16 -11 19 -18 10
-28 -6 -7 -16 -13 -23 -13 -7 0 -18 -7 -25 -15 -7 -8 -16 -13 -20 -10 -4 2
-25 -13 -48 -35 -24 -24 -53 -42 -73 -45 -18 -3 -36 -11 -40 -16 -3 -6 -8 -10
-10 -9 -7 2 -44 -13 -49 -21 -3 -4 -12 -9 -20 -11 -8 -2 -23 -11 -34 -20 -10
-10 -23 -15 -28 -12 -4 3 -8 0 -8 -6 0 -6 -4 -8 -10 -5 -5 3 -10 2 -10 -2 0
-5 -26 -22 -57 -38 -32 -17 -60 -33 -61 -38 -2 -4 -8 -5 -13 -1 -5 3 -9 0 -9
-5 0 -6 -5 -11 -10 -11 -13 0 -64 -35 -103 -72 -16 -15 -35 -25 -41 -21 -6 3
-8 3 -5 -1 9 -9 -40 -62 -53 -58 -5 1 -7 -2 -3 -7 3 -6 -7 -18 -22 -28 -15
-10 -37 -26 -47 -35 -10 -10 -22 -15 -26 -13 -4 3 -13 -2 -20 -10 -7 -8 -19
-15 -26 -15 -8 0 -14 -4 -14 -10 0 -5 -7 -10 -15 -10 -8 0 -15 -5 -15 -11 0
-5 -4 -8 -9 -5 -10 7 -73 -37 -118 -82 -17 -18 -30 -32 -28 -32 9 0 -44 -48
-60 -53 -9 -4 -14 -10 -12 -14 3 -5 -1 -14 -9 -21 -8 -7 -14 -9 -14 -5 0 4 -4
3 -8 -2 -13 -18 -89 -75 -101 -75 -6 0 -11 -3 -11 -8 0 -4 -29 -22 -64 -40
-108 -55 -137 -49 -70 14 32 31 34 35 20 50 -9 8 -16 20 -16 25 0 6 -42 8
-102 7 -87 -2 -106 -6 -120 -22 -10 -10 -18 -23 -18 -28 0 -5 -4 -6 -10 -3 -5
3 -10 2 -10 -4 0 -20 -47 -56 -73 -57 -14 -1 -24 2 -22 6 3 4 -3 14 -12 21
-14 12 -16 12 -9 -1 6 -12 5 -11 -6 1 -33 39 -96 46 -153 17 -20 -11 -35 -13
-45 -6 -10 6 -25 6 -45 -2 -16 -6 -31 -11 -33 -10 -6 2 -30 -26 -26 -31 2 -4
-7 -14 -21 -23 -24 -16 -24 -21 -10 -78 5 -20 3 -28 -6 -29 -8 0 -31 -2 -51
-3 -38 -3 -94 -48 -83 -66 3 -5 1 -11 -5 -15 -6 -4 -5 -17 3 -38 11 -26 11
-36 0 -57 -15 -30 -17 -90 -2 -90 5 0 8 -4 4 -9 -3 -6 9 -26 26 -45 17 -20 29
-42 26 -50 -3 -8 -32 -32 -64 -55 -51 -35 -72 -51 -133 -103 -8 -7 -18 -12
-23 -10 -5 1 -6 -2 -2 -8 3 -5 2 -10 -2 -10 -15 0 -47 -64 -45 -90 3 -40 23
-91 33 -85 5 4 9 -3 9 -14 0 -12 4 -21 10 -21 5 0 9 -3 8 -7 -2 -5 8 -30 21
-57 15 -30 20 -50 14 -55 -6 -3 -11 -54 -12 -116 -1 -110 -4 -144 -16 -200 -4
-16 -8 -34 -9 -40 -6 -28 -40 -84 -74 -120 -37 -40 -111 -98 -98 -77 3 6 -7 4
-23 -4 -17 -8 -40 -17 -53 -20 -13 -2 -36 -7 -53 -10 -16 -4 -43 -8 -60 -10
-65 -7 -167 -33 -175 -45 -3 -4 -12 -9 -20 -11 -8 -2 -19 -7 -25 -11 -27 -21
-145 -87 -154 -87 -6 0 -11 -3 -11 -7 0 -10 -62 -47 -72 -45 -5 1 -8 -3 -8 -9
0 -5 -4 -8 -9 -5 -5 3 -14 -1 -21 -9 -7 -8 -19 -15 -26 -15 -8 0 -14 -3 -14
-8 0 -4 -30 -23 -67 -42 -38 -19 -70 -38 -73 -41 -5 -6 -59 -37 -132 -76 -15
-8 -30 -19 -33 -24 -4 -5 -10 -7 -14 -5 -4 3 -20 -6 -35 -19 -16 -14 -33 -22
-37 -19 -5 3 -9 0 -9 -6 0 -6 -4 -9 -9 -6 -5 3 -12 -1 -15 -10 -3 -8 -10 -12
-16 -9 -5 3 -10 1 -10 -4 0 -6 -6 -11 -14 -11 -8 0 -16 -4 -18 -8 -4 -11 -101
-67 -110 -64 -5 1 -8 -2 -8 -8 0 -5 -7 -10 -15 -10 -8 0 -15 -5 -15 -12 0 -6
-3 -8 -7 -5 -3 4 -18 -3 -31 -15 -14 -13 -22 -16 -17 -8 4 8 -2 5 -14 -7 -19
-21 -26 -24 -46 -23 -3 0 -15 -9 -27 -19 -11 -11 -25 -18 -30 -15 -4 3 -8 1
-8 -4 0 -5 -8 -12 -18 -16 -9 -3 -35 -17 -57 -31 -22 -14 -50 -30 -63 -35 -12
-5 -35 -21 -50 -35 -15 -14 -30 -25 -34 -25 -10 0 -209 -118 -232 -139 -16
-13 -18 -13 -12 -1 4 9 2 8 -7 -3 -8 -9 -17 -17 -21 -17 -32 0 -236 -175 -236
-203 0 -7 -5 -18 -12 -25 -18 -18 -13 -130 8 -177 10 -22 17 -43 16 -47 -1 -5
2 -8 8 -8 5 0 10 -5 10 -11 0 -11 50 -82 63 -87 4 -2 7 -9 7 -15 0 -10 94
-141 132 -182 10 -11 34 -40 54 -65 65 -80 128 -153 166 -191 20 -20 48 -56
63 -79 34 -54 57 -77 120 -120 28 -18 71 -55 96 -82 26 -26 50 -48 53 -48 4 0
20 -12 35 -28 58 -54 112 -97 122 -94 5 1 9 -2 9 -7 0 -24 138 -34 160 -11 3
3 27 17 53 30 46 23 104 93 129 152 4 10 12 18 18 18 5 0 10 7 10 15 0 8 5 15
10 15 6 0 10 6 10 14 0 7 10 21 23 30 12 9 15 14 7 10 -8 -4 -5 3 8 15 12 12
22 26 22 31 0 14 72 80 87 80 7 0 13 9 13 19 0 10 6 21 14 24 10 4 15 -6 20
-33 5 -34 11 -40 43 -51 21 -6 43 -16 50 -21 19 -15 118 -11 150 6 15 8 37 28
48 45 11 17 23 31 26 31 3 0 20 14 37 30 18 17 29 30 25 30 -4 0 7 10 24 23
16 12 31 25 32 29 1 4 4 15 7 23 13 34 -6 65 -58 91 -61 31 -129 37 -178 16
-82 -34 -110 -10 -58 52 4 6 18 22 29 36 11 14 35 46 52 73 17 26 35 47 40 47
6 0 8 3 4 6 -3 4 -1 12 6 19 7 7 19 23 27 35 8 13 23 32 32 42 10 10 16 18 13
18 -3 0 -1 6 5 12 6 7 32 42 58 78 25 36 51 68 57 72 6 5 6 8 0 8 -5 0 -2 5 8
11 9 5 17 15 17 20 0 6 6 16 12 23 7 8 20 23 28 36 19 28 56 73 97 119 18 20
33 40 33 44 0 5 5 5 10 2 6 -3 10 1 10 9 0 9 7 16 15 16 8 0 15 4 15 9 0 9 97
54 118 54 6 0 12 4 12 9 0 4 3 7 8 7 4 -1 9 0 12 1 3 1 13 3 23 5 10 2 26 7
35 11 9 4 22 8 27 9 6 2 37 11 70 21 33 10 63 17 68 16 4 -1 7 3 7 9 0 5 4 8
9 4 10 -6 31 2 129 46 34 16 62 33 62 39 0 6 4 8 10 5 5 -3 15 3 22 15 7 11
16 20 20 20 5 0 17 9 28 20 11 11 18 20 14 20 -3 0 6 11 20 23 14 13 23 27 19
30 -3 4 -2 7 4 7 13 0 13 5 11 205 -2 94 3 159 17 230 3 17 8 39 10 50 3 20
10 40 36 100 7 17 13 33 14 38 2 4 4 9 5 12 1 3 3 10 4 15 0 6 8 15 16 20 8 5
11 10 7 10 -9 0 44 82 76 118 28 30 36 28 53 -13 8 -19 19 -35 25 -35 5 0 8
-4 5 -9 -3 -5 1 -12 10 -15 9 -4 14 -9 11 -13 -8 -7 89 -103 106 -104 7 0 21
-3 32 -5 38 -9 160 -10 200 -2 70 14 135 39 135 50 0 4 3 7 8 6 17 -3 49 19
99 69 30 29 50 53 47 53 -4 0 5 11 19 24 14 13 23 27 20 30 -4 3 1 6 11 6 9 0
15 4 11 9 -3 5 0 13 5 16 17 11 32 55 37 110 2 28 10 53 18 58 24 13 12 43
-37 98 -10 10 -15 19 -12 19 4 0 1 7 -6 15 -11 13 -10 18 6 30 10 8 23 15 27
15 5 0 15 7 24 15 12 12 13 19 3 30 -7 8 -11 15 -9 16 2 0 18 2 34 4 40 4 59
9 65 16 10 11 165 94 173 91 4 -1 7 3 7 10 0 6 3 9 6 5 3 -3 11 -2 18 4 30 25
87 58 81 47 -4 -7 -1 -6 7 2 7 9 28 22 46 29 17 7 32 17 32 22 0 5 3 9 8 8 15
-2 52 14 52 22 0 5 8 9 19 9 10 0 24 7 31 15 7 8 17 15 22 15 6 0 23 9 39 21
16 11 29 17 29 14 0 -3 14 3 30 15 17 12 30 19 30 16 0 -3 16 6 36 19 20 14
43 25 50 25 7 0 14 3 16 8 2 4 24 17 49 30 25 13 63 37 84 55 56 48 115 107
107 107 -4 1 4 7 18 15 14 8 21 14 15 15 -5 0 8 16 28 35 20 19 37 39 37 45 0
5 6 10 14 10 8 0 18 5 22 12 5 7 2 9 -7 4 -8 -4 -5 0 6 9 11 9 30 25 43 35 12
11 27 20 33 20 5 0 7 5 4 10 -3 6 -2 10 2 10 10 0 45 25 79 58 13 13 24 20 24
16 0 -4 9 2 20 13 11 12 33 30 50 39 16 10 30 22 30 26 0 4 7 8 15 8 9 0 18 7
21 15 4 8 12 15 20 15 8 0 14 5 14 12 0 6 3 9 6 5 4 -3 15 4 25 16 10 12 18
18 19 14 0 -4 9 1 20 11 11 10 33 25 48 33 15 8 32 21 39 29 7 8 13 12 13 8 0
-7 25 11 55 40 8 6 18 12 24 12 6 0 11 5 11 11 0 5 4 8 9 5 5 -3 11 1 15 9 3
8 12 15 21 15 8 0 15 5 15 10 0 6 7 10 15 10 8 0 15 5 15 10 0 6 9 10 20 10
11 0 20 -4 20 -9 0 -5 8 -12 19 -16 18 -5 47 -27 85 -62 13 -12 16 -13 11 -3
-8 13 -7 13 11 0 10 -8 25 -20 32 -27 7 -7 26 -20 42 -30 17 -9 30 -21 30 -25
0 -4 7 -8 15 -8 8 0 15 -4 15 -10 0 -5 7 -10 15 -10 8 0 15 -5 15 -11 0 -5 5
-7 10 -4 6 3 13 -1 16 -9 3 -9 13 -16 20 -16 8 0 17 -7 20 -15 4 -8 9 -13 13
-10 4 2 14 -5 21 -16 8 -10 20 -19 26 -19 6 0 23 -12 38 -26 14 -15 26 -24 26
-20 0 6 7 1 68 -51 15 -13 31 -23 35 -23 5 0 5 -5 1 -12 -4 -6 -3 -8 3 -5 6 4
34 -15 62 -42 28 -26 52 -47 53 -46 2 1 13 -8 26 -21 12 -13 20 -24 18 -24 -3
0 13 -19 34 -42 22 -23 40 -45 40 -50 0 -5 5 -6 10 -3 6 3 10 -1 10 -9 0 -9 7
-16 16 -16 8 0 13 -4 10 -8 -3 -5 9 -19 26 -33 17 -13 41 -34 54 -46 13 -13
28 -23 34 -23 5 0 10 -4 10 -10 0 -5 7 -10 15 -10 8 0 15 -5 15 -11 0 -5 4 -8
9 -4 5 3 16 -1 24 -9 8 -8 17 -12 21 -9 3 4 6 2 6 -4 0 -6 12 -14 28 -18 15
-3 34 -12 42 -19 8 -7 58 -35 110 -62 52 -27 97 -52 98 -56 2 -5 8 -8 14 -8 5
0 24 -10 41 -22 17 -12 27 -16 22 -8 -5 8 4 5 19 -8 16 -12 35 -22 42 -22 8 0
14 -5 14 -11 0 -5 5 -7 10 -4 6 3 13 -1 16 -9 3 -9 12 -16 19 -16 7 0 24 -9
38 -20 15 -12 29 -21 32 -20 10 1 110 -53 113 -61 2 -5 8 -7 13 -3 5 3 9 0 9
-6 0 -6 4 -8 10 -5 5 3 10 1 10 -5 0 -6 4 -8 10 -5 5 3 10 2 10 -3 0 -11 45
-26 75 -25 23 1 39 -18 23 -28 -13 -8 4 -27 43 -47 23 -12 25 -16 15 -47 -6
-18 -13 -32 -16 -30 -4 2 -15 -10 -25 -28 -19 -31 -21 -57 -5 -67 4 -3 9 -25
11 -50 1 -25 11 -61 20 -81 10 -20 15 -40 11 -44 -4 -5 -2 -5 5 -2 6 4 13 3
15 -2 8 -25 158 -192 158 -177 0 4 7 0 16 -8 8 -9 20 -14 25 -11 5 4 9 2 9 -3
0 -5 10 -13 23 -17 12 -4 27 -9 32 -11 65 -22 122 -30 200 -27 114 4 115 5
115 15 0 4 5 8 11 8 6 0 29 19 52 42 23 23 35 38 27 34 -8 -5 -3 2 11 15 32
29 71 94 62 102 -3 4 1 7 10 7 8 0 22 -6 29 -14 19 -20 50 -63 51 -73 1 -4 8
-16 17 -26 8 -10 15 -21 14 -25 0 -4 6 -13 13 -20 7 -8 11 -18 8 -23 -4 -5 -1
-9 5 -9 6 0 9 -4 6 -9 -4 -5 -1 -11 4 -13 6 -2 12 -13 13 -26 0 -12 5 -22 10
-22 4 0 6 -4 2 -9 -3 -5 -1 -12 5 -16 6 -4 8 -10 5 -15 -3 -5 -1 -11 4 -15 5
-3 8 -14 6 -25 -2 -11 -1 -20 4 -20 4 0 7 -10 8 -22 1 -13 5 -45 9 -73 7 -48
9 -181 4 -291 -1 -29 1 -58 6 -65 5 -8 9 -17 9 -22 0 -13 87 -97 133 -129 34
-24 96 -56 122 -63 3 -1 13 -5 22 -9 9 -4 25 -9 35 -11 10 -2 18 -4 18 -5 0
-1 8 -3 17 -5 9 -2 54 -15 100 -30 46 -15 88 -28 93 -30 68 -16 225 -96 225
-114 0 -4 20 -29 45 -56 69 -76 71 -78 91 -113 10 -17 22 -32 27 -32 4 0 6 -4
3 -8 -3 -5 4 -15 15 -22 10 -8 19 -20 19 -27 0 -6 8 -17 18 -22 9 -6 13 -11 9
-11 -5 0 -2 -6 5 -14 7 -7 20 -24 28 -36 8 -13 29 -39 45 -59 17 -19 23 -31
15 -26 -8 4 -6 -1 5 -12 11 -11 27 -30 35 -43 8 -12 20 -28 27 -35 7 -7 9 -15
6 -19 -4 -3 -2 -6 4 -6 5 0 24 -23 42 -50 18 -28 40 -58 49 -67 9 -9 17 -20
17 -25 0 -5 5 -12 11 -16 6 -4 17 -18 24 -31 10 -19 10 -25 -1 -32 -14 -9 -60
-3 -69 9 -14 19 -133 20 -156 1 -8 -6 -14 -9 -14 -5 0 9 -65 -30 -66 -40 0 -5
-4 -16 -7 -24 -4 -8 -5 -23 -4 -32 3 -18 65 -86 131 -146 20 -18 36 -37 36
-42 0 -31 168 -58 185 -30 4 6 11 8 16 5 5 -4 9 -2 9 3 0 5 13 12 30 15 26 6
31 12 36 47 5 33 9 38 20 29 8 -6 14 -18 14 -27 0 -8 3 -12 6 -9 6 6 68 -42
69 -53 1 -5 30 -42 53 -66 7 -8 10 -14 5 -14 -4 0 0 -5 10 -11 9 -6 15 -14 12
-19 -3 -4 2 -10 10 -14 8 -3 15 -10 15 -16 0 -6 6 -18 13 -25 30 -34 35 -43
30 -49 -4 -3 -1 -6 5 -6 7 0 12 -7 12 -17 0 -9 3 -13 6 -10 4 4 14 -7 23 -24
9 -17 34 -40 56 -52 22 -12 43 -26 47 -32 4 -5 8 -7 8 -3 0 4 15 1 33 -6 47
-20 116 -8 162 27 63 48 154 127 200 173 22 22 63 55 90 74 57 39 88 70 120
121 22 34 47 63 140 161 25 26 45 49 45 52 0 3 9 16 20 28 40 45 52 60 106
131 30 40 64 83 75 97 11 14 19 27 17 30 -1 3 10 18 25 34 14 15 29 37 32 47
4 11 11 19 16 19 5 0 9 7 9 15 0 8 5 15 12 15 6 0 8 3 5 7 -4 3 -2 12 4 19 16
20 35 105 32 144 -3 52 -7 64 -26 93 -9 15 -17 32 -17 38 0 7 -3 9 -7 6 -3 -4
-19 7 -35 23 -15 16 -28 28 -28 25 0 -3 -16 11 -35 30 -20 18 -44 37 -55 40
-11 4 -20 11 -20 16 0 6 -5 7 -10 4 -6 -3 -10 -1 -10 4 0 6 -7 11 -15 11 -8 0
-15 5 -15 11 0 5 -5 7 -10 4 -6 -3 -13 1 -16 9 -3 9 -10 13 -15 10 -5 -3 -9 0
-9 5 0 6 -7 11 -15 11 -8 0 -15 5 -15 11 0 5 -4 8 -8 5 -5 -3 -18 2 -28 12
-10 9 -32 24 -49 32 -16 8 -32 17 -35 20 -3 3 -18 12 -35 20 -16 8 -32 17 -35
20 -14 15 -119 79 -142 86 -10 4 -18 10 -18 15 0 5 -5 9 -11 9 -6 0 -25 10
-42 22 -18 13 -33 21 -34 18 -1 -3 -11 3 -22 12 -11 9 -22 14 -25 11 -3 -4 -6
-1 -6 6 0 7 -5 9 -10 6 -6 -3 -10 -2 -10 2 0 5 -9 13 -19 18 -104 53 -138 72
-149 82 -6 6 -21 15 -32 18 -11 3 -20 11 -20 16 0 6 -4 7 -10 4 -5 -3 -10 -2
-10 3 0 5 -13 15 -30 22 -16 7 -30 17 -30 22 0 5 -4 7 -8 4 -5 -3 -19 4 -30
15 -12 11 -22 17 -22 15 0 -3 -23 8 -50 24 -28 17 -55 30 -60 30 -4 0 -10 4
-12 8 -3 8 -75 52 -125 76 -13 6 -23 15 -23 19 0 5 -4 6 -9 3 -5 -3 -14 1 -21
9 -7 8 -18 15 -24 15 -7 0 -23 10 -36 23 -14 12 -27 21 -30 21 -11 -3 -50 20
-50 28 0 5 -4 7 -9 4 -5 -3 -14 1 -21 9 -7 8 -18 15 -25 15 -6 0 -20 9 -30 20
-10 11 -26 20 -36 20 -9 0 -19 4 -21 9 -5 12 -155 90 -186 96 -15 3 -38 7 -52
10 -14 3 -38 7 -55 10 -16 2 -40 6 -52 9 -11 2 -42 8 -67 11 -25 4 -46 11 -46
16 0 5 -3 8 -7 7 -36 -7 -139 88 -173 158 -21 45 -26 69 -36 159 -6 50 -6 58
-4 161 1 30 -3 61 -8 67 -16 19 -16 19 12 70 15 26 23 47 19 47 -4 0 0 5 10
11 9 5 17 19 17 29 0 11 5 20 12 20 6 0 8 3 5 7 -4 3 -2 12 4 19 21 25 19 61
-5 97 -13 19 -21 38 -18 42 4 4 2 5 -3 3 -10 -3 -15 0 -67 44 -54 46 -63 54
-71 55 -5 1 -17 11 -26 22 -10 12 -21 21 -25 21 -10 0 -46 34 -46 43 0 4 14
25 31 47 39 49 50 112 23 141 -15 17 -16 22 -4 29 8 5 11 12 7 16 -4 4 -3 12
3 19 6 7 5 20 -4 36 -7 13 -11 30 -8 37 2 6 -3 12 -11 12 -9 0 -17 4 -19 9 -1
6 -23 12 -47 15 -24 3 -46 8 -50 11 -9 10 -8 54 1 49 4 -3 7 4 5 15 -4 25 -81
101 -105 102 -9 1 -32 1 -51 0 -19 -1 -37 3 -41 9 -4 6 -27 13 -51 15 -45 4
-86 -12 -119 -45 -23 -23 -51 -19 -79 9 -12 12 -19 21 -16 21 3 0 -11 15 -30
33 -34 32 -37 33 -132 35 l-98 2 -16 -29 c-16 -28 -16 -28 17 -55 36 -29 45
-56 17 -51 -10 2 -19 4 -20 5 -2 2 -6 4 -10 5 -33 10 -73 31 -73 37 0 4 -6 8
-14 8 -8 0 -21 6 -28 13 -7 6 -25 18 -39 25 -14 7 -41 28 -61 47 -20 18 -39
31 -41 29 -2 -2 -10 7 -17 21 -7 14 -17 25 -22 25 -5 0 -24 16 -42 35 -19 19
-32 35 -30 35 12 0 -53 52 -88 72 -24 12 -44 26 -46 31 -2 4 -10 7 -17 7 -8 0
-21 7 -29 16 -9 8 -16 13 -16 9 0 -5 -40 18 -68 40 -11 9 -52 46 -164 150 -15
14 -29 25 -32 25 -9 0 -111 65 -114 73 -2 4 -8 5 -13 1 -5 -3 -9 0 -9 7 0 7
-3 9 -6 6 -4 -3 -18 3 -32 13 -13 11 -31 20 -38 20 -8 0 -14 5 -14 11 0 5 -5
7 -10 4 -6 -3 -13 1 -16 9 -3 9 -10 13 -15 10 -5 -3 -9 0 -9 6 0 6 -4 8 -10 5
-5 -3 -10 -1 -10 6 0 7 -3 9 -6 6 -4 -4 -19 2 -34 13 -15 11 -30 17 -34 13 -3
-3 -6 -2 -6 4 0 11 -54 27 -77 24 -7 -1 -13 2 -13 7 0 19 -37 50 -90 77 -30
16 -57 30 -59 31 -1 2 6 13 18 25 12 13 21 20 21 16 0 -4 12 3 26 16 14 12 30
22 35 22 5 0 13 5 17 11 4 6 22 19 40 29 17 11 32 23 32 27 0 4 6 8 14 8 8 0
17 7 20 16 3 8 10 13 15 10 5 -4 11 -2 13 2 1 5 50 41 108 81 58 39 117 82
131 95 25 24 26 24 53 7 15 -10 26 -20 25 -22 -10 -14 39 -60 71 -69 42 -11
45 -30 10 -67 -37 -40 -39 -54 -31 -170 0 -12 7 -28 14 -35 7 -7 13 -16 13
-20 -2 -14 49 -69 74 -82 14 -8 35 -12 47 -10 21 4 63 37 63 49 0 3 5 11 10
18 45 53 60 73 60 80 0 4 11 18 24 30 23 22 26 27 26 48 0 5 4 8 9 5 13 -9 50
84 44 113 -3 14 -6 31 -7 38 -1 7 -5 16 -9 19 -4 4 -7 16 -7 26 0 10 -5 18
-12 18 -6 0 -8 3 -5 7 4 3 -1 12 -11 20 -10 9 -11 12 -2 7 8 -4 0 9 -17 27
-24 26 -43 36 -70 37 -21 2 -40 -2 -44 -10 -12 -19 -20 -5 -23 41 -3 39 -30
76 -48 65 -4 -2 -10 1 -14 7 -5 8 -3 9 7 4 8 -5 3 3 -10 17 -14 14 -25 32 -27
39 -1 8 -4 29 -7 47 -5 30 -2 35 32 55 20 12 46 28 56 35 11 7 28 15 37 18 10
4 18 10 18 14 0 7 9 11 50 24 7 2 64 39 70 46 3 3 12 6 20 8 8 2 17 8 18 13 2
5 9 9 17 9 7 0 18 7 25 15 7 8 16 12 21 9 5 -3 9 0 9 6 0 6 4 9 9 5 5 -3 15 0
23 7 7 7 33 24 58 37 25 14 48 29 51 34 3 5 8 8 10 7 6 -2 43 13 49 19 3 3 23
15 45 26 22 11 42 22 45 25 3 3 34 20 70 39 36 19 71 39 79 45 8 6 39 23 70
38 31 15 52 28 46 28 -5 0 10 10 35 21 24 11 53 27 62 36 10 9 18 13 18 10 0
-4 22 7 49 23 26 17 53 30 60 30 6 0 11 5 11 10 0 6 3 9 8 8 4 -1 26 10 49 25
24 15 47 27 53 27 5 0 10 5 10 10 0 6 7 10 15 10 8 0 15 5 15 12 0 6 3 9 6 5
3 -3 23 4 43 17 20 13 46 26 59 30 12 4 22 12 22 17 0 5 7 9 15 9 8 0 15 5 15
11 0 5 4 8 9 4 5 -3 17 3 27 12 10 10 19 17 21 15 2 -2 21 7 41 19 20 13 40
22 45 21 4 -1 7 2 7 8 0 6 4 9 9 8 5 -2 18 3 28 10 49 33 133 80 133 74 0 -4
5 1 11 11 6 9 14 15 19 12 5 -3 11 -1 15 5 4 6 10 8 15 5 4 -3 11 2 14 11 3 8
10 12 16 9 5 -3 10 -1 10 4 0 6 7 11 15 11 8 0 15 4 15 8 0 4 16 14 35 21 19
7 35 17 35 23 0 6 3 8 7 5 3 -4 11 -3 17 2 6 5 34 21 61 37 97 53 114 63 152
87 21 13 41 25 45 26 4 1 21 15 39 32 17 16 37 29 43 29 7 0 18 11 24 24 6 14
20 30 32 36 17 9 20 8 20 -13 0 -12 6 -29 13 -36 10 -11 9 -13 -3 -7 -8 4 1
-6 20 -23 19 -17 38 -31 43 -31 21 0 39 -32 33 -58 -12 -48 -13 -76 -3 -107 5
-16 9 -36 10 -42 0 -7 4 -13 9 -13 4 0 8 -8 8 -18 0 -9 9 -23 20 -30 11 -7 20
-20 20 -29 0 -9 3 -14 6 -10 4 3 13 0 21 -8 9 -10 24 -13 41 -9 28 7 55 32 47
44 -3 5 1 10 9 13 24 9 26 46 3 58 -18 10 -24 7 -46 -20 l-26 -32 -23 25 c-12
14 -19 26 -16 26 4 0 1 6 -5 13 -21 26 -24 88 -5 128 9 22 21 39 26 39 4 0 7
3 6 8 -2 10 36 72 45 72 5 0 5 5 2 10 -3 6 -2 10 3 10 13 0 62 -66 55 -74 -4
-3 -1 -6 5 -6 6 0 9 -6 6 -14 -3 -8 -1 -17 5 -20 11 -7 -1 -60 -20 -82 -6 -8
-8 -14 -3 -14 5 0 3 -4 -4 -9 -11 -6 -10 -11 3 -25 20 -19 50 -7 60 24 3 11
10 20 15 20 5 0 7 7 4 15 -4 8 -2 15 4 15 13 0 5 94 -8 98 -6 2 -10 14 -10 27
0 14 -17 41 -44 67 -35 35 -50 44 -74 42 -26 -2 -30 1 -25 20 6 26 6 54 -2 84
-4 18 -1 25 15 29 11 3 20 9 20 14 0 5 7 9 15 9 8 0 15 4 15 10 0 5 11 12 25
16 14 3 25 10 25 15 0 5 3 8 8 7 4 -2 33 12 64 30 32 18 71 37 87 42 26 7 32
5 46 -17 9 -13 14 -31 11 -39 -12 -32 27 -23 109 25 48 28 90 51 94 51 4 0 19
13 34 28 32 33 28 62 -8 62 -38 0 -39 18 -3 50 30 28 42 34 52 28 3 -2 15 7
28 20 14 12 28 19 31 15 4 -3 7 -2 7 3 0 5 20 18 45 29 25 11 45 23 45 28 0 4
7 7 15 7 8 0 15 5 15 11 0 5 5 7 10 4 5 -3 10 -1 10 4 0 6 3 10 8 9 9 -3 70
29 101 53 13 10 27 16 32 13 5 -3 9 0 9 5 0 6 6 11 14 11 21 0 216 102 216
112 0 5 4 7 9 3 5 -3 17 2 25 11 9 8 16 12 16 8 0 -4 8 0 18 9 10 10 22 14 25
10 4 -3 7 -1 7 6 0 7 5 9 10 6 6 -3 10 -3 10 2 0 4 18 17 40 27 22 11 40 24
40 29 0 6 3 7 7 4 3 -4 15 0 25 10 10 9 18 13 18 9 0 -4 14 7 30 24 33 34 36
49 17 100 -27 75 -86 158 -100 143 -4 -3 -7 -1 -7 5 0 7 -11 12 -25 12 -35 0
-31 14 9 39 19 12 40 29 47 38 12 14 12 15 1 9 -11 -7 -12 -4 -4 10 6 11 31
28 56 39 25 11 46 24 46 28 0 5 4 6 9 3 16 -10 45 34 44 68 -1 39 -43 124 -74
150 -24 20 -76 26 -87 10 -4 -6 -25 -19 -47 -31 -60 -31 -117 -63 -145 -83
-14 -9 -33 -16 -42 -14 -10 2 -26 6 -35 8 -21 4 -63 -13 -63 -26 0 -5 -4 -7
-9 -3 -5 3 -17 -3 -27 -12 -10 -10 -19 -17 -21 -16 -1 1 -9 0 -17 -3 -18 -7
-56 13 -56 30 0 7 -13 28 -30 46 -16 18 -30 39 -30 46 0 7 -3 14 -7 16 -5 2
-28 30 -52 63 -25 33 -49 63 -55 67 -7 5 -7 8 -1 8 6 0 -3 8 -20 18 -21 13
-38 17 -57 11 -14 -4 -29 -5 -32 -1 -3 3 -6 0 -6 -7 0 -7 -4 -9 -10 -6 -5 3
-10 1 -10 -4 0 -6 -5 -11 -10 -11 -18 0 -115 -89 -106 -97 6 -7 -19 -65 -28
-63 -12 2 -35 -33 -36 -53 0 -9 12 -35 28 -56 15 -21 34 -49 42 -61 8 -13 26
-34 40 -48 14 -13 19 -21 12 -17 -15 8 54 -86 72 -98 7 -5 5 -12 -9 -22 -11
-9 -28 -22 -37 -30 -10 -8 -18 -13 -18 -10 0 3 -18 -6 -40 -20 -22 -14 -44
-25 -50 -25 -5 0 -10 -4 -10 -10 0 -5 -7 -10 -15 -10 -8 0 -15 -5 -15 -11 0
-5 -4 -7 -10 -4 -5 3 -10 1 -10 -5 0 -6 -4 -8 -10 -5 -5 3 -10 1 -10 -5 0 -6
-4 -9 -8 -6 -5 3 -19 -4 -30 -15 -12 -11 -22 -17 -22 -14 0 4 -12 -2 -27 -12
-16 -10 -40 -25 -55 -33 -16 -7 -28 -17 -28 -22 0 -4 -7 -8 -17 -8 -9 0 -31
-11 -48 -25 -18 -13 -35 -22 -37 -19 -3 2 -11 -2 -18 -11 -7 -8 -19 -15 -26
-15 -8 0 -14 -4 -14 -10 0 -5 -4 -10 -9 -10 -5 0 -38 -16 -73 -36 -34 -20 -68
-37 -75 -37 -7 0 -15 -7 -17 -14 -3 -8 -10 -11 -16 -8 -5 3 -10 1 -10 -4 0 -6
-7 -11 -15 -11 -8 0 -15 -5 -15 -11 0 -5 -4 -7 -10 -4 -5 3 -10 1 -10 -5 0 -6
-4 -8 -10 -5 -5 3 -10 1 -10 -6 0 -7 -3 -10 -6 -6 -3 3 -14 -2 -25 -11 -10
-10 -41 -29 -68 -42 -28 -14 -51 -28 -51 -32 0 -5 -9 -8 -20 -8 -11 0 -20 -5
-20 -11 0 -5 -4 -8 -9 -5 -5 3 -11 -1 -14 -8 -4 -11 -18 -14 -48 -11 -22 3
-50 0 -61 -6 -15 -8 -24 -7 -37 5 -10 9 -21 13 -24 9 -4 -3 -7 -2 -7 4 0 17
-61 6 -115 -20 -27 -14 -53 -23 -57 -21 -5 3 -8 0 -8 -5 0 -6 -7 -11 -15 -11
-8 0 -15 -5 -15 -11 0 -5 -5 -7 -10 -4 -5 3 -10 1 -10 -5 0 -6 -4 -9 -9 -5 -5
3 -12 1 -15 -4 -4 -5 -27 -19 -54 -32 -26 -12 -49 -26 -52 -29 -5 -6 -42 -22
-48 -20 -1 0 -10 -6 -18 -15 -9 -8 -22 -15 -30 -15 -8 0 -14 -3 -14 -7 0 -5
-10 -13 -23 -19 -12 -6 -43 -23 -69 -38 -27 -14 -48 -23 -48 -19 0 4 -7 -2
-15 -13 -8 -10 -15 -15 -15 -11 0 4 -19 -5 -43 -21 -37 -25 -77 -45 -85 -42
-1 0 -10 -6 -18 -15 -9 -8 -20 -13 -25 -10 -5 4 -9 2 -9 -3 0 -5 -22 -19 -50
-32 -27 -13 -50 -27 -50 -32 0 -4 -6 -8 -13 -8 -7 0 -29 -11 -48 -25 -20 -13
-39 -21 -43 -18 -3 4 -6 1 -6 -6 0 -7 -4 -10 -9 -6 -5 3 -13 0 -16 -5 -4 -6
-17 -15 -28 -21 -12 -5 -29 -13 -37 -18 -40 -25 -126 -70 -134 -69 -5 0 -12
-4 -15 -9 -3 -4 -26 -19 -51 -32 -25 -13 -53 -31 -64 -40 -10 -9 -19 -14 -20
-12 0 2 -19 -7 -41 -20 -22 -13 -42 -23 -45 -22 -3 1 -9 -5 -13 -13 -5 -8 -12
-12 -18 -9 -5 4 -9 1 -9 -4 0 -6 -7 -11 -15 -11 -8 0 -15 -5 -15 -12 0 -6 -3
-9 -6 -6 -3 4 -33 -9 -66 -28 -33 -19 -64 -34 -69 -34 -5 0 -9 -5 -9 -11 0 -5
-4 -7 -10 -4 -6 3 -10 1 -10 -5 0 -6 -4 -8 -10 -5 -5 3 -10 2 -10 -2 0 -9 -59
-37 -72 -34 -5 0 -8 -3 -8 -9 0 -5 -7 -10 -15 -10 -8 0 -15 -5 -15 -11 0 -5
-4 -7 -10 -4 -5 3 -10 1 -10 -4 0 -6 -4 -11 -9 -11 -6 0 -38 -17 -73 -37 -35
-21 -66 -36 -70 -35 -5 1 -8 -1 -8 -6 0 -4 -17 -16 -37 -26 -21 -10 -45 -22
-53 -27 -8 -5 -31 -17 -50 -27 -19 -9 -37 -20 -40 -24 -3 -3 -12 -8 -19 -10
-8 -2 -23 -10 -33 -18 -10 -8 -22 -15 -26 -15 -11 -1 -55 -27 -70 -42 -7 -7
-20 -13 -28 -13 -8 0 -14 -5 -14 -10 0 -6 -11 -15 -24 -20 -24 -9 -136 -79
-146 -91 -9 -10 -55 -33 -62 -31 -5 1 -8 -3 -8 -8 0 -6 -8 -10 -17 -10 -10 0
-43 -13 -73 -30 -30 -16 -79 -41 -107 -56 -29 -14 -53 -30 -53 -35 0 -5 -6 -9
-13 -9 -7 0 -35 -14 -61 -30 -26 -17 -53 -32 -59 -33 -6 -1 -20 -10 -31 -19
-11 -10 -24 -18 -28 -18 -5 0 -26 -11 -48 -25 -22 -14 -40 -23 -40 -20 0 3
-22 -10 -49 -29 -27 -19 -51 -33 -54 -30 -2 2 -10 -2 -17 -11 -7 -8 -19 -15
-26 -15 -8 0 -14 -5 -14 -11 0 -5 -4 -7 -10 -4 -5 3 -10 1 -10 -5 0 -6 -4 -8
-10 -5 -5 3 -10 1 -10 -4 0 -6 -4 -11 -9 -11 -5 0 -27 -12 -49 -26 -22 -15
-43 -25 -46 -23 -3 2 -12 -5 -20 -16 -9 -11 -16 -16 -16 -12 0 5 -12 -1 -26
-12 -15 -11 -30 -18 -35 -15 -5 3 -9 1 -9 -3 0 -5 -17 -17 -37 -28 -21 -11
-69 -38 -108 -61 -67 -39 -105 -51 -105 -32 0 5 -4 6 -10 3 -5 -3 -10 -2 -10
3 0 4 -16 14 -35 22 -19 8 -35 18 -35 22 0 5 -5 6 -10 3 -6 -3 -13 1 -16 9 -3
9 -10 14 -14 11 -4 -3 -18 3 -31 13 -13 10 -43 27 -66 37 -24 11 -43 24 -43
28 0 5 -4 6 -10 2 -5 -3 -17 2 -27 12 -18 18 -60 40 -77 41 -5 0 -13 7 -18 16
-5 9 -14 16 -20 16 -6 0 -26 11 -45 26 -18 14 -33 22 -33 18 0 -4 -9 1 -20 11
-11 10 -20 14 -20 9 0 -5 -7 0 -15 10 -8 11 -15 16 -15 10 0 -5 -3 -5 -8 1 -9
13 -60 43 -94 56 -16 6 -28 15 -28 20 0 5 -3 8 -7 7 -7 -2 -24 6 -78 40 -11 7
-32 17 -47 23 -16 6 -28 15 -28 20 0 5 -9 9 -20 9 -11 0 -20 5 -20 10 0 6 -7
10 -15 10 -8 0 -15 4 -15 8 0 4 -20 16 -45 26 -25 11 -45 23 -45 28 0 5 -5 6
-10 3 -6 -3 -10 -1 -10 5 0 6 -4 8 -10 5 -6 -3 -10 -1 -10 5 0 6 -4 8 -10 5
-6 -3 -10 -2 -10 3 0 9 -28 20 -70 28 -8 2 -16 8 -18 13 -2 6 -10 11 -18 11
-8 0 -14 5 -14 11 0 5 -4 8 -8 5 -5 -3 -19 5 -33 17 -13 12 -45 33 -71 47 -26
13 -44 28 -42 32 3 5 2 8 -3 7 -13 -4 -63 23 -63 34 0 6 -3 8 -6 4 -3 -3 -15
3 -27 13 -11 11 -24 17 -29 14 -4 -3 -8 0 -8 6 0 6 -5 8 -10 5 -6 -3 -13 1
-16 9 -3 9 -14 16 -24 16 -9 0 -27 9 -40 20 -13 11 -29 20 -37 20 -7 0 -13 4
-13 10 0 5 -3 9 -7 8 -11 -3 -96 42 -104 54 -3 5 -8 9 -10 8 -10 -4 -59 21
-59 30 0 5 -3 9 -7 8 -8 -2 -52 21 -98 49 -11 7 -31 18 -45 25 -14 7 -28 16
-31 21 -3 5 -10 9 -15 9 -19 1 -54 22 -54 31 0 6 -3 8 -6 4 -7 -7 -155 71
-166 87 -4 6 -8 7 -8 2 0 -5 -9 -1 -20 9 -11 10 -20 15 -20 11 0 -8 -51 24
-68 44 -12 13 -13 13 -6 0 6 -12 4 -12 -12 1 -10 9 -35 25 -54 34 -19 10 -37
21 -40 24 -3 3 -18 13 -35 21 -16 8 -42 23 -57 33 -16 10 -28 15 -28 11 0 -4
-8 -1 -17 7 -10 8 -31 21 -48 29 -16 8 -32 17 -35 20 -3 3 -23 14 -45 25 -22
11 -46 27 -53 35 -12 13 -13 13 -6 0 7 -13 6 -13 -12 0 -10 8 -22 19 -25 23
-3 5 -10 9 -15 9 -19 1 -54 22 -54 31 0 6 -3 7 -7 4 -3 -4 -18 3 -31 15 -14
13 -22 17 -18 10 5 -8 -9 -3 -30 10 -22 13 -52 30 -69 38 -16 8 -32 18 -35 21
-3 3 -31 19 -62 34 -32 16 -58 32 -58 37 0 4 -3 8 -7 7 -16 -2 -53 14 -53 22
0 5 -9 9 -20 9 -11 0 -20 4 -20 8 0 5 -21 20 -47 33 -27 13 -50 27 -51 32 -2
4 -8 5 -13 1 -5 -3 -9 0 -9 6 0 6 -4 8 -10 5 -5 -3 -10 -1 -10 5 0 6 -4 8 -10
5 -6 -3 -10 -1 -10 5 0 6 -4 8 -10 5 -6 -3 -10 -1 -10 4 0 6 -5 11 -11 11 -6
0 -23 9 -39 20 -15 11 -30 17 -34 13 -3 -3 -6 -1 -6 6 0 7 -4 10 -9 6 -6 -3
-14 2 -19 11 -5 9 -13 16 -18 16 -10 1 -26 5 -51 15 -10 3 -21 5 -25 5 -5 -1
-8 2 -8 6 0 13 -41 28 -67 26 -13 -1 -29 -2 -37 -3 -8 0 -22 -8 -30 -16 -12
-13 -20 -14 -37 -5 -12 7 -36 9 -53 6 -25 -5 -41 0 -69 19 -21 13 -37 21 -37
17 0 -4 -4 -2 -8 3 -4 6 -29 22 -55 35 -26 14 -57 33 -67 43 -11 9 -26 17 -34
17 -8 0 -16 3 -18 8 -1 4 -28 20 -58 36 -30 16 -62 35 -71 42 -9 8 -19 11 -22
7 -4 -3 -7 0 -7 7 0 7 -3 10 -6 7 -4 -4 -19 2 -34 13 -16 11 -33 20 -39 20 -6
0 -11 3 -11 8 0 4 -23 18 -50 31 -28 14 -50 29 -50 34 0 4 -4 6 -9 3 -5 -3
-14 1 -21 9 -7 8 -16 12 -21 9 -5 -3 -9 -1 -9 4 0 5 -13 15 -30 22 -16 7 -30
17 -30 22 0 5 -4 6 -10 3 -5 -3 -10 -1 -10 5 0 6 -4 8 -10 5 -5 -3 -10 -1 -10
5 0 6 -4 8 -10 5 -5 -3 -10 -1 -10 4 0 6 -7 11 -15 11 -8 0 -15 4 -15 8 0 4
-16 14 -35 21 -19 7 -35 16 -35 20 0 8 -28 20 -53 25 -4 0 -11 6 -15 12 -7 10
-38 26 -55 28 -4 1 -11 6 -15 12 -4 6 -15 13 -24 17 -21 8 -24 43 -5 54 8 4
22 23 32 41 11 17 23 32 28 32 4 0 6 4 2 9 -3 6 1 13 8 18 21 12 98 131 103
158 3 17 -4 29 -23 44 -14 12 -27 32 -29 44 -1 12 -3 25 -3 28 -2 12 -55 64
-86 85 -58 38 -98 52 -125 42z m-15 -808 c15 -13 136 -80 168 -93 15 -6 27
-14 27 -17 0 -3 20 -14 45 -25 25 -11 45 -23 45 -27 0 -5 5 -8 10 -8 6 0 27
-11 48 -23 39 -25 79 -48 207 -117 44 -24 82 -46 85 -49 3 -3 28 -17 55 -31
28 -13 52 -27 55 -30 3 -3 16 -11 29 -18 13 -8 40 -23 60 -34 20 -12 56 -32
81 -46 87 -48 110 -64 110 -77 0 -26 -25 -22 -90 13 -36 19 -75 40 -87 46 -13
6 -23 14 -23 17 0 3 -24 16 -52 30 -29 13 -55 26 -58 30 -3 3 -34 21 -70 40
-36 19 -67 36 -70 39 -16 16 -68 38 -75 32 -5 -4 -6 -2 -2 4 3 5 -14 19 -39
30 -24 10 -44 22 -44 27 0 4 -4 7 -8 7 -11 0 -212 115 -232 132 -8 7 -16 12
-17 10 -5 -4 -138 71 -141 80 -2 4 -7 6 -12 3 -5 -3 -14 0 -22 7 -7 7 -25 19
-40 27 -29 15 -37 36 -15 44 13 4 55 -9 72 -23z m10355 11 c-1 -17 -22 -33
-90 -69 -19 -10 -51 -28 -70 -39 -88 -50 -138 -78 -180 -100 -25 -13 -58 -32
-75 -42 -86 -52 -229 -131 -237 -131 -5 0 -6 -5 -3 -10 4 -6 3 -9 -2 -8 -11 4
-87 -34 -91 -44 -2 -5 -10 -8 -17 -8 -8 0 -21 -7 -29 -16 -9 -8 -16 -13 -16
-10 0 4 -18 -5 -40 -19 -22 -14 -43 -25 -47 -25 -3 0 -14 -6 -22 -14 -9 -7
-45 -29 -81 -47 -36 -19 -68 -38 -72 -44 -5 -6 -14 -4 -24 7 -14 14 -15 20 -4
32 7 9 19 16 26 16 8 0 14 5 14 10 0 6 5 10 10 10 14 0 194 102 198 112 2 4 8
8 13 8 5 0 44 20 87 44 42 23 97 54 122 68 139 77 171 95 229 130 34 21 64 38
66 38 4 0 214 117 235 131 49 32 100 42 100 20z m-7065 -2714 c36 -52 45 -63
68 -88 9 -10 17 -22 17 -26 0 -4 10 -17 22 -31 44 -46 27 -155 -32 -216 -18
-18 -19 -18 -42 6 -31 32 -59 68 -79 98 -9 14 -28 37 -42 53 -14 15 -23 27
-20 27 3 0 -1 8 -11 19 -24 26 -27 55 -11 106 7 25 12 45 10 45 -2 0 10 15 27
34 36 40 47 37 93 -27z m3805 -11 c28 -58 33 -122 11 -144 -10 -9 -28 -33 -41
-52 -13 -19 -27 -37 -30 -40 -4 -3 -27 -32 -51 -65 -42 -57 -69 -78 -69 -53 0
6 -3 8 -7 5 -10 -11 -47 60 -59 111 -10 47 -5 72 21 100 14 15 25 30 25 34 0
3 6 13 13 20 7 7 24 29 37 48 13 19 31 40 40 47 8 7 11 13 7 13 -4 0 4 11 19
25 25 24 28 24 45 9 10 -9 28 -35 39 -58z m-4075 -2513 c8 -3 15 -9 15 -14 0
-13 52 -69 59 -65 11 7 12 -84 1 -124 -6 -23 -18 -44 -25 -47 -8 -3 -13 -8
-10 -12 5 -9 -116 -71 -139 -71 -8 0 -18 -4 -21 -10 -3 -5 -16 -9 -28 -9 -12
1 -38 -1 -59 -4 -25 -4 -47 0 -75 15 -21 11 -73 38 -115 60 -43 22 -78 44 -78
49 0 5 -6 9 -14 9 -8 0 -16 7 -20 15 -3 8 -12 15 -20 15 -29 0 -8 36 34 58 53
28 72 23 96 -28 10 -22 22 -40 27 -40 4 0 7 -5 7 -11 0 -12 80 -89 92 -89 4 0
11 0 14 1 4 0 10 -3 13 -9 3 -5 20 -14 38 -20 27 -9 34 -7 52 12 12 12 21 25
21 29 0 4 -20 16 -45 28 -80 38 -137 105 -149 176 -5 24 -2 29 16 30 12 1 24
6 27 11 3 5 17 13 29 17 13 4 45 16 70 28 26 12 49 22 52 22 3 1 19 7 35 14
71 30 69 30 78 -1 4 -16 14 -31 22 -35z m102 29 c7 -18 9 -32 5 -32 -7 0 -20
20 -40 64 -3 5 1 7 9 4 7 -2 19 -19 26 -36z m4061 31 c-24 -49 -32 -63 -39
-63 -9 0 -1 28 12 46 5 6 6 14 2 17 -3 4 2 7 11 7 10 0 16 -3 14 -7z m167 -24
c17 -7 33 -12 38 -11 4 1 7 -2 7 -8 0 -5 3 -9 8 -8 4 1 19 -4 35 -10 15 -7 39
-17 55 -24 15 -6 29 -12 32 -13 53 -18 58 -24 51 -57 -17 -73 -60 -124 -136
-162 -30 -15 -55 -30 -55 -35 0 -11 46 -52 52 -46 3 3 15 8 28 10 28 5 109 57
133 85 28 33 57 92 50 103 -3 6 -1 7 4 4 6 -4 13 -1 16 7 3 8 16 13 29 11 26
-3 85 -32 93 -45 6 -10 -34 -60 -48 -60 -5 0 -18 -10 -28 -22 -11 -11 -19 -17
-19 -13 0 4 -9 0 -21 -11 -12 -10 -23 -18 -25 -17 -8 4 -70 -26 -98 -48 -43
-34 -125 -30 -235 11 -70 26 -135 78 -140 111 -11 63 -6 128 11 141 36 28 89
102 85 119 -5 18 14 16 78 -12z m-4727 -379 c28 -17 32 -23 22 -35 -30 -37
-113 6 -93 48 7 13 37 7 71 -13z m5099 3 c8 -23 -36 -54 -68 -49 -41 6 -45 12
-25 35 27 29 85 38 93 14z m-6636 -1933 c10 -6 19 -17 19 -24 0 -8 -40 -55
-89 -106 -88 -90 -90 -92 -128 -85 -21 3 -43 6 -50 7 -6 1 -13 12 -16 25 -3
18 13 40 82 108 77 77 89 85 124 85 21 0 47 -5 58 -10z m8279 -74 c46 -47 86
-88 87 -93 7 -19 -24 -43 -65 -49 l-42 -7 -90 93 c-50 50 -90 98 -90 105 0 21
30 34 75 35 37 0 47 -6 125 -84z"/>
</g>
</svg>
